<svg width="48" height="48" viewBox="0 0 48 48" fill="none" xmlns="http://www.w3.org/2000/svg">
<path fill-rule="evenodd" clip-rule="evenodd" d="M6.19904 27.5508C9.66322 23.756 15.3167 21.4054 18.9761 21.2898C23.4747 21.1514 26.1271 23.7411 26.2386 27.3357C26.3023 29.4441 25.7531 31.2839 23.452 33.7675C21.5272 35.974 20.6337 36.3747 20.4529 36.3817C20.2563 36.3896 20.1791 36.2849 20.1771 36.1474C20.1702 36.016 20.194 35.8785 20.2395 35.8395C20.4598 35.6341 20.6442 35.4094 20.8543 35.1673C21.6351 34.2971 21.7225 34.1831 22.1883 33.3612C23.0519 31.7814 23.2973 30.7675 23.2564 29.5102C23.1343 25.5525 20.0346 22.8187 16.2079 22.9383C11.3716 23.0903 5.55119 29.1362 5.79892 37.1022C5.83388 38.2198 5.97803 39.2376 6.20761 40.1656C10.2137 44.5951 15.8448 47.5211 22.1583 47.9988C26.838 46.416 30.284 42.1114 30.092 35.9608C30.0396 34.3457 29.8183 32.8623 29.3241 31.2594L27.6887 25.7797C26.5757 21.938 26.3003 19.8349 26.2472 18.1055C26.0734 12.5075 28.0538 8.4758 31.7041 5.35357C32.9018 4.35291 34.178 3.55278 35.511 2.94359C32.0933 1.06913 28.1706 8.20801e-05 23.9969 8.20801e-05C10.7448 8.20801e-05 0 10.7619 0 24.0358C0 27.6932 0.819699 31.16 2.27965 34.265C2.99611 31.8336 4.31126 29.5838 6.19904 27.5508Z" fill="#103C76"/>
<path fill-rule="evenodd" clip-rule="evenodd" d="M41.3861 18.143C40.9161 18.1579 40.4269 18.1027 40.1079 18.0528C40.0186 18.0558 39.8272 17.9818 39.8213 17.8338C39.8173 17.7155 39.942 17.6359 40.1132 17.628L40.5288 17.6171C42.3886 17.5596 44.5798 16.0277 45.5585 13.4661C43.5767 9.42252 40.4965 6.01782 36.7028 3.64286C33.9623 5.0132 31.8331 8.00791 31.9317 11.187C31.9792 12.7562 32.5984 15.6957 33.712 18.0773L35.5978 22.3049C37.7669 26.924 38.0899 29.4817 38.1522 31.5633C38.422 40.2448 32.2599 44.3396 30.2722 45.6871C28.8987 46.5946 27.3982 47.3707 25.8171 48C38.2248 47.0694 48.0001 36.6961 48.0001 24.0357C48.0001 21.2871 47.5364 18.6458 46.6876 16.1863C45.2432 17.3832 43.3956 18.0813 41.3861 18.143Z" fill="#103C76"/>
</svg>
