<svg width="140" height="32" viewBox="0 0 140 32" fill="none" xmlns="http://www.w3.org/2000/svg">
<path fill-rule="evenodd" clip-rule="evenodd" d="M4.13269 18.367C6.44214 15.8371 10.2111 14.2701 12.6507 14.193C15.6498 14.1008 17.4181 15.8272 17.4924 18.2237C17.5349 19.6292 17.1687 20.8558 15.6346 22.5115C14.3515 23.9825 13.7558 24.2497 13.6353 24.2543C13.5042 24.2596 13.4527 24.1897 13.4514 24.0981C13.4468 24.0105 13.4626 23.9189 13.493 23.8929C13.6399 23.7559 13.7628 23.6061 13.9029 23.4447C14.4234 22.8646 14.4817 22.7886 14.7922 22.2406C15.3679 21.1874 15.5315 20.5115 15.5042 19.6733C15.4229 17.0348 13.3564 15.2123 10.8053 15.292C7.58104 15.3934 3.7008 19.424 3.86595 24.7346C3.88926 25.4797 3.98535 26.1583 4.13841 26.7769C6.80917 29.7299 10.5632 31.6806 14.7722 31.999C17.892 30.9439 20.1893 28.0741 20.0614 23.9737C20.0264 22.8969 19.8788 21.9081 19.5494 20.8395L18.4591 17.1863C17.7172 14.6252 17.5335 13.2231 17.4981 12.0702C17.3822 8.33818 18.7026 5.65037 21.136 3.56888C21.9345 2.90178 22.7853 2.36835 23.674 1.96223C21.3955 0.712589 18.7804 -0.000108719 15.9979 -0.000108719C7.16322 -0.000108719 0 7.17443 0 16.0237C0 18.462 0.546466 20.7732 1.51977 22.8432C1.99741 21.2222 2.87417 19.7224 4.13269 18.367Z" fill="white"/>
<path fill-rule="evenodd" clip-rule="evenodd" d="M27.5908 12.0954C27.2774 12.1053 26.9513 12.0685 26.7386 12.0352C26.679 12.0372 26.5515 11.9879 26.5475 11.8892C26.5449 11.8104 26.628 11.7573 26.7421 11.752L27.0192 11.7447C28.2591 11.7064 29.7199 10.6852 30.3724 8.97742C29.0512 6.28168 26.9977 4.01188 24.4685 2.42858C22.6416 3.34213 21.2221 5.33861 21.2878 7.45798C21.3195 8.50412 21.7323 10.4638 22.4747 12.0515L23.7319 14.8699C25.178 17.9493 25.3932 19.6544 25.4348 21.0422C25.6147 26.8299 21.5066 29.5597 20.1815 30.4581C19.2658 31.0631 18.2654 31.5804 17.2114 32C25.4832 31.3796 32.0001 24.464 32.0001 16.0238C32.0001 14.1914 31.6909 12.4306 31.1251 10.7909C30.1621 11.5888 28.9304 12.0542 27.5908 12.0954Z" fill="white"/>
<path fill-rule="evenodd" clip-rule="evenodd" d="M106.014 22.9235C105.621 22.9235 105.344 22.6791 105.344 22.2923C105.344 22.1444 105.377 21.8307 105.906 20.7868C106.427 19.7431 106.777 19.2506 107.388 18.497C108.246 17.46 109.085 16.7518 109.699 16.3671C110.226 16.064 110.397 16.0346 110.543 16.0346C110.893 16.0346 111.15 16.3077 111.15 16.6658C111.15 16.7427 111.128 17.0996 110.702 17.8741C110.433 18.3606 109.732 19.4714 109.321 20.0386C108.219 21.5696 107.368 22.2885 106.927 22.5622C106.394 22.91 106.229 22.9235 106.014 22.9235ZM139.104 21.2884L138.415 21.7032C137.822 22.2885 137.32 22.6791 137.151 22.7877C136.936 22.9319 136.742 22.9749 136.61 22.9749C136.391 22.9749 136.289 22.8624 136.289 22.6513C136.289 22.5494 136.301 22.1218 137.343 20.9158L138.403 19.6706C139.829 17.9775 140 17.0912 140 16.7776C140 16.2224 139.619 15.7496 138.586 15.7496C137.86 15.7496 136.729 15.9508 134.494 18.0084C135.188 17.147 135.606 16.359 135.815 15.7381L133.351 15.7955C133.181 16.4268 133.092 16.9812 130.159 20.3842L129.482 21.1729L129.228 21.4385C127.756 22.7877 127.549 22.8624 127.471 22.8994C127.204 23.0366 127.024 23.0668 126.879 23.0668C126.483 23.0668 126.284 22.827 126.284 22.5735C126.284 22.3323 126.447 22.0833 126.695 21.6489C126.941 21.2672 127.343 20.7212 127.945 20.0182L129.166 18.6456C130.261 17.3846 130.549 16.7768 130.772 15.9803C129.934 16.0346 129.07 16.1001 128.302 16.1114L128.113 16.4917C128.001 16.7427 127.898 17.0407 126.076 19.1396C125.48 19.8222 124.89 20.5085 124.269 21.1729L123.908 21.5696C122.762 22.6513 122.379 22.8828 122.342 22.91C122.033 23.0797 121.806 23.1309 121.665 23.1309C121.316 23.1309 121.118 22.9235 121.118 22.6437C121.118 22.0464 121.683 21.3026 123.706 18.5823L125.456 16.2224L126.733 16.1854C126.793 16.1854 126.879 16.1591 126.879 16.1001C126.879 16.0346 126.831 15.9871 126.733 15.9871H125.592L126.447 14.8113C127.409 13.4598 127.471 13.2275 127.659 12.5667C127.159 12.6369 126.622 12.6709 126.101 12.6709C125.775 12.6709 125.435 12.646 125.111 12.6232C125.009 13.2388 124.851 13.7455 124.073 14.8241L123.229 15.9803L122.234 15.9645C122.108 15.9645 122.066 16.0195 122.066 16.064C122.066 16.1114 122.089 16.1591 122.234 16.1591L123.096 16.1711L121.134 18.7512C120.871 19.0794 120.643 19.4021 120.361 19.7295C120.129 20.0182 119.844 20.3186 119.587 20.5871L119.08 21.1729L118.721 21.5871C118.437 21.9211 117.927 22.2923 117.733 22.4045C117.329 22.6234 117.168 22.6437 117.018 22.6437C116.726 22.6437 116.519 22.4197 116.519 22.1444C116.519 22.069 116.572 21.3125 117.927 19.3516C118.907 17.9058 119.397 17.3197 121.045 15.7164C120.212 16.0262 119.25 16.1854 118.833 16.1854C117.986 16.1854 117.403 15.9645 116.913 15.5897C115.6 17.825 114.06 19.7951 113.333 20.5846L112.815 21.1729L112.483 21.5283C111.633 22.3903 111.203 22.6791 111.036 22.7833C110.713 22.9513 110.535 22.9749 110.497 22.9749C110.298 22.9749 110.138 22.839 110.138 22.6588C110.138 22.6121 110.183 22.3903 110.535 21.6573C110.631 21.4505 111.044 20.6843 112.087 19.1615C112.975 17.8439 113.275 17.5272 114.48 15.9645C114.078 16.0195 113.671 16.0346 113.233 16.0346C112.885 16.0346 112.509 16.0262 112.144 15.9803C111.933 16.2662 111.752 16.4917 111.595 16.7412C111.503 16.3143 111.128 15.9162 110.134 15.9162C109.014 15.9162 107.627 16.3077 106.323 17.2934C105.891 17.6169 105.359 18.0612 104.542 19.0612C104.142 19.5734 104.115 19.4881 103.674 19.9639C102.228 21.6263 101.366 21.7892 101.134 21.7892C100.786 21.7892 100.518 21.5915 100.518 21.0673C100.518 20.8418 100.527 20.6473 100.786 19.8448C101.158 18.789 102.824 15.4659 104.597 13.069C105.573 11.7485 106.759 10.5041 107.253 10.0627C107.654 9.71811 108.05 9.35755 108.514 9.10037C108.962 8.83411 109.507 8.62974 109.938 8.52654C109.938 8.52654 110.048 8.4804 110.028 8.42778C110.028 8.36811 109.946 8.36811 109.928 8.36811C109.82 8.36811 108.779 8.50467 107.882 8.8002C107.203 9.0483 105.723 9.71812 104.286 10.7159C103.457 11.274 102.596 11.946 101.217 13.3284C99.5174 15.0105 98.0475 16.8665 96.4881 18.6412C96.1261 19.0499 95.7297 19.4881 95.3399 19.8969C96.4201 18.3575 97.0847 16.8982 97.6695 14.361L98.3167 11.624C98.668 10.0627 99.2274 9.35755 99.7519 8.93231L100.237 8.5408C100.285 8.52653 100.292 8.48948 100.292 8.44946C100.292 8.42778 100.285 8.39294 100.2 8.39294C100.181 8.39294 100.135 8.39832 100.113 8.39832C99.1069 8.78816 97.5693 9.58378 94.8891 12.8585L91.4918 16.9812C90.7233 17.9111 89.1561 19.5235 88.4163 20.1337C86.878 21.4505 85.5864 22.1444 85.0935 22.3323C84.3751 22.6121 83.6073 22.7469 83.0526 22.7469C81.1208 22.7469 79.7971 21.5463 79.7971 19.6458C79.7971 17.9299 80.9095 16.0346 82.4663 15.1077C83.3457 14.5715 84.3005 14.3301 85.0173 14.3301C86.387 14.3301 87.3218 15.2554 87.3218 16.445C87.3218 16.9653 87.1774 17.4766 86.7177 18.0612C86.5163 18.3206 86.2543 18.5717 86.0009 18.7512C85.9831 18.7633 85.9017 18.832 85.9017 18.8946C85.9017 18.9367 85.933 18.9865 86.0224 18.9865C86.1113 18.9865 86.3814 18.9775 87.0874 18.4135C88.0142 17.6908 88.4007 16.8144 88.4007 15.9388C88.4007 14.4741 87.306 13.4883 85.8052 13.4883C82.7728 13.4883 78.2216 17.1387 78.2216 20.9815C78.2216 21.9965 78.6401 22.8715 79.42 23.5502C80.138 24.1446 80.9284 24.4575 82.1182 24.4575C83.8386 24.4575 85.226 23.6521 86.5239 22.7508C87.8015 21.857 89.3627 20.3931 91.1222 18.1757L94.4373 13.9304C95.3399 12.7802 96.286 11.7794 97.3401 10.82C96.2456 12.0614 95.804 12.7296 95.2598 13.8346C94.7946 14.7646 94.4453 15.6499 94.233 16.3799L92.9886 20.4097C92.6914 21.3797 92.0616 22.4377 91.5843 22.9393C91.4433 23.106 91.2751 23.2456 91.1222 23.3684C91.1083 23.3753 91.0431 23.4318 91.0431 23.5013C91.0431 23.5865 91.0707 23.6354 91.1924 23.6354C91.2332 23.6354 92.185 23.3271 93.5463 22.1783C93.9371 21.857 94.7946 21.0455 96.149 19.4979C96.5303 19.0794 97.2672 18.2241 99.9971 15.0549C100.846 14.0548 102.103 12.8585 103.068 12.0253C104.149 11.1239 104.97 10.5786 106.215 9.91656C103.435 12.112 100.986 14.8015 99.172 17.6908C98.0101 19.5235 97.7204 20.3621 97.55 20.8811C97.3758 21.4649 97.363 21.7032 97.363 21.9965C97.363 23.2456 97.9904 23.7041 98.7642 23.7041C99.172 23.7041 99.7519 23.6076 100.724 23.0366C101.217 22.7469 101.741 22.2168 102.653 21.3026L103.913 20.2068C103.524 21.0877 103.435 21.6828 103.435 22.112C103.435 23.0366 104.09 23.6076 104.916 23.6076C105.436 23.6076 105.835 23.5624 106.927 22.7833C107.589 22.2923 108.187 21.7243 108.658 21.1896C108.368 21.9211 108.305 22.4377 108.305 22.6234C108.305 23.2765 108.708 23.6452 109.434 23.6452C109.745 23.6452 110.77 23.4455 112.427 21.8398L112.965 21.3026L113.355 20.8411C114.326 19.7603 115.37 18.445 116.318 17.0407C116.642 17.3251 117.071 17.4924 117.544 17.4924C117.986 17.4924 118.368 17.4096 118.672 17.2782L117.466 18.2595C114.436 20.7084 114.181 21.9965 114.181 22.5342C114.181 23.2689 114.652 23.671 115.523 23.671C115.968 23.671 116.339 23.6076 116.96 23.2689C117.403 23.0058 118.394 22.2522 118.887 21.6828L119.25 21.3026L119.674 20.8057C119.296 21.5026 119.158 22.1051 119.158 22.4197C119.158 23.2961 119.609 23.6867 120.508 23.6867C121.189 23.6867 122.13 23.5405 124.037 21.7032L124.451 21.3026L124.569 21.1572C124.269 21.6639 124.161 22.1783 124.161 22.4657C124.161 23.2102 124.635 23.7177 125.69 23.7177C125.975 23.7177 126.43 23.6452 127.068 23.3564C127.287 23.235 127.832 22.9235 128.65 22.2168C128.905 21.9965 129.129 21.7801 129.364 21.5696L129.647 21.3026L130.129 20.7868L128.268 23.4318H130.859L131.416 22.5494C132.133 21.3977 133.561 19.5009 134.062 18.9473C134.663 18.2595 135.551 17.4268 135.878 17.147C136.813 16.3912 137.353 16.303 137.578 16.303C137.837 16.303 137.99 16.4524 137.99 16.6169C137.99 16.6907 137.99 16.8144 137.751 17.1728C137.626 17.3251 137.48 17.5491 136.887 18.2649L135.631 19.6977C135.103 20.2921 134.642 20.9815 134.462 21.3171C134.184 21.8307 134.142 22.112 134.142 22.3691C134.142 23.0879 134.74 23.6452 135.52 23.6452C135.685 23.6452 136.082 23.5865 136.526 23.3753C136.831 23.235 137.491 22.827 138.525 21.8398L139.104 21.2884ZM72.3732 21.3026L71.6782 21.7032C71.0986 22.2885 70.6011 22.6791 70.4438 22.7975C70.2059 22.9393 70.02 22.9749 69.8846 22.9749C69.6761 22.9749 69.5676 22.8624 69.5676 22.6513C69.5676 22.5622 69.5894 22.1316 70.6152 20.9158L71.6706 19.6706C73.113 17.9775 73.2661 17.0912 73.2661 16.7776C73.2661 16.2224 72.8886 15.7496 71.8618 15.7496C71.1275 15.7496 70.0147 15.9508 67.7671 18.0084C68.4621 17.147 68.8861 16.359 69.0882 15.7457L66.6317 15.7955C66.4612 16.4268 66.361 16.9812 63.444 20.3842L62.7601 21.1729L62.4407 21.535C61.5937 22.3903 61.1574 22.6791 60.988 22.7833C60.6638 22.9513 60.482 22.9749 60.4405 22.9749C60.2443 22.9749 60.1244 22.8466 60.1244 22.6708C60.1244 22.6121 60.1305 22.3903 60.482 21.6573C60.5898 21.4505 61.008 20.6843 62.0473 19.1615C62.9308 17.8439 63.2265 17.5272 64.4479 15.9645C64.038 16.0195 63.6323 16.0346 63.1991 16.0346C62.8363 16.0346 62.4648 16.0346 62.0959 15.9803C61.8878 16.2662 61.7068 16.4917 61.5515 16.7412C61.4677 16.3143 61.086 15.9162 60.1072 15.9162C58.9747 15.9162 57.5934 16.3077 56.2751 17.2934C55.8383 17.6267 55.3168 18.0612 54.5102 19.0612C54.0983 19.5756 53.7074 20.1103 53.263 20.5871L52.87 21.3026L53.8619 20.2068C53.4833 21.0877 53.3916 21.6828 53.3916 22.1127C53.3916 23.0366 54.0448 23.6076 54.8862 23.6076C55.3979 23.6076 55.8031 23.5624 56.8824 22.7833C57.5461 22.3013 58.1522 21.7243 58.613 21.1896C58.323 21.9226 58.2647 22.4377 58.2647 22.6234C58.2647 23.2765 58.6575 23.6452 59.3853 23.6452C59.6995 23.6452 60.7134 23.4514 62.3843 21.8398L62.9143 21.3026L63.4101 20.7868L61.5378 23.4318H64.1255L64.6828 22.5622C65.4125 21.3977 66.8444 19.5235 67.3376 18.9473C67.9648 18.2595 68.8457 17.4307 69.1609 17.147C70.0864 16.3912 70.6241 16.3077 70.8466 16.3077C71.1064 16.3077 71.2572 16.4524 71.2572 16.6169C71.2572 16.7005 71.2572 16.8144 71.0145 17.1735C70.914 17.3251 70.7501 17.5491 70.1486 18.2649L68.9046 19.6977C68.4038 20.2921 67.9204 20.9815 67.7456 21.3171C67.4742 21.8307 67.4286 22.1127 67.4286 22.3691C67.4286 23.0933 68.0232 23.6452 68.8038 23.6452C68.9607 23.6452 69.3439 23.5865 69.8005 23.3753C70.1218 23.235 70.7617 22.827 71.8127 21.8398L72.3732 21.3026ZM55.9775 22.9235C55.5819 22.9235 55.3051 22.6791 55.3051 22.3013C55.3051 22.152 55.3342 21.8307 55.8737 20.7868C56.3851 19.7431 56.7312 19.2506 57.3388 18.5115C58.2141 17.46 59.0319 16.7631 59.6814 16.3671C60.1848 16.064 60.3568 16.0346 60.4974 16.0346C60.8511 16.0346 61.1057 16.3077 61.1057 16.6658C61.1057 16.7427 61.086 17.0996 60.6512 17.8809C60.3892 18.3606 59.6901 19.4714 59.2691 20.0386C58.1715 21.5696 57.3249 22.2885 56.8824 22.5622C56.3466 22.91 56.1761 22.9235 55.9775 22.9235ZM40 19.9639C40 21.1896 40.4175 22.0102 41.2892 22.7206C41.9857 23.2456 43.1764 23.7403 45.1161 23.7403C46.8282 23.7403 48.5527 23.2765 49.9347 22.449C50.6403 22.0102 52.8389 20.6843 52.8389 17.7225C52.8389 17.0181 52.7566 16.1424 52.0507 14.5489L51.4383 13.0879C51.0726 12.2658 50.8854 11.2612 50.8854 10.719C50.8854 9.27621 52.2871 7.97215 53.6851 7.97215C54.339 7.97215 54.8443 8.20969 55.2258 8.65012C55.551 8.97901 55.8383 9.65771 55.8383 10.5786C55.8383 12.0902 54.7114 13.0079 53.825 13.0079H53.6851C53.6221 13.0079 53.5704 13.0314 53.5704 13.069C53.5704 13.1189 53.6356 13.1491 53.6738 13.1491C53.7767 13.1709 53.9497 13.1928 54.122 13.1928C55.7613 13.1928 57.1407 11.9966 57.1407 10.1511C57.1407 8.5408 56.0948 7.54229 54.3562 7.54229C53.1167 7.54229 51.9206 7.93602 50.8704 8.73998C49.5671 9.76722 48.8249 11.1157 48.8249 13.0216C48.8249 13.6106 48.9034 14.3264 49.2514 15.6499L49.7576 17.5272C49.9212 18.0792 49.9683 18.5823 49.9683 19.1366C49.9683 21.7597 48.0255 23.3323 45.7769 23.3323C44.1191 23.3323 41.4767 22.4377 41.4767 19.2671C41.4767 16.5497 43.5742 14.5617 45.2651 14.5617C46.6016 14.5617 47.6638 15.5202 47.6638 16.8665C47.6638 17.2934 47.5634 17.641 47.2373 18.1652C47.0752 18.445 47.0366 18.479 46.7558 18.7633C46.6818 18.8515 46.6144 18.9261 46.5336 18.9865C46.5258 19.0025 46.5065 19.0499 46.5065 19.0966C46.5065 19.1396 46.5336 19.1767 46.6016 19.1767C46.664 19.1767 46.9783 19.0499 47.6809 18.3206C48.5097 17.4955 48.7231 16.8785 48.7231 16.1591C48.7231 14.9373 47.8237 14.026 46.2497 14.026C44.9698 14.026 42.9692 14.7646 41.7234 16.0195C40.5948 17.132 40 18.454 40 19.9639ZM131.941 13.6642C132.81 13.6642 133.557 12.9529 133.557 12.3118C133.557 11.8397 133.161 11.4565 132.55 11.4565C131.655 11.4565 131.349 12.3412 130.936 12.8232C128.621 15.5435 130.6 14.4409 131.941 13.6642Z" fill="white"/>
</svg>
